<svg height="512" viewBox="0 0 58 46" width="512" xmlns="http://www.w3.org/2000/svg"><g id="Page-1" fill="none" fill-rule="evenodd"><g id="037---404-Page" fill="rgb(0,0,0)" fill-rule="nonzero"><rect id="Rectangle-path" height="14" rx="2" width="6" x="26" y="16"/><path id="Shape" d="m0 42c0 2.209139 1.790861 4 4 4h50c2.209139 0 4-1.790861 4-4v-33h-58zm32 1h-6c-.5522847 0-1-.4477153-1-1s.4477153-1 1-1h6c.5522847 0 1 .4477153 1 1s-.4477153 1-1 1zm9-4h-24c-.5522847 0-1-.4477153-1-1s.4477153-1 1-1h24c.5522847 0 1 .4477153 1 1s-.4477153 1-1 1zm-4.914-13.047 7.062-11.477c.1769361-.3251596.5190251-.5259734.8891861-.5219718s.7078288.2121639.8776942.5410726c.1698653.3289087.144135.7247484-.0668803 1.0288992l-7.059 11.476h5.211v-2c0-.5522847.4477153-1 1-1s1 .4477153 1 1v2h2c.5522847 0 1 .4477153 1 1s-.4477153 1-1 1h-2v2c0 .5522847-.4477153 1-1 1s-1-.4477153-1-1v-2h-5.21c-.723588-.0014648-1.3899553-.3936541-1.7425054-1.0255482-.35255-.6318941-.3362952-1.4049359.0425054-2.0214518zm-12.086-7.953c0-2.209139 1.790861-4 4-4h2c2.209139 0 4 1.790861 4 4v10c0 2.209139-1.790861 4-4 4h-2c-2.209139 0-4-1.790861-4-4zm-13.914 7.953 7.062-11.477c.3028421-.436507.8941472-.5600105 1.3463915-.2812152.4522442.2787953.6075412.862557.3536085 1.3292152l-7.059 11.476h5.211v-2c0-.5522847.4477153-1 1-1s1 .4477153 1 1v2h2c.5522847 0 1 .4477153 1 1s-.4477153 1-1 1h-2v2c0 .5522847-.4477153 1-1 1s-1-.4477153-1-1v-2h-5.21c-.723588-.0014648-1.3899553-.3936541-1.7425054-1.0255482-.35255004-.6318941-.33629516-1.4049359.0425054-2.0214518z"/><path id="Shape" d="m58 4c0-2.209139-1.790861-4-4-4h-50c-2.209139 0-4 1.790861-4 4v3h58zm-54 1c-.55228475 0-1-.44771525-1-1s.44771525-1 1-1 1 .44771525 1 1-.44771525 1-1 1zm4 0c-.55228475 0-1-.44771525-1-1s.44771525-1 1-1 1 .44771525 1 1-.44771525 1-1 1zm4 0c-.5522847 0-1-.44771525-1-1s.4477153-1 1-1 1 .44771525 1 1-.4477153 1-1 1zm20 0h-6c-.5522847 0-1-.44771525-1-1s.4477153-1 1-1h6c.5522847 0 1 .44771525 1 1s-.4477153 1-1 1zm22 0h-11c-.5522847 0-1-.44771525-1-1s.4477153-1 1-1h11c.5522847 0 1 .44771525 1 1s-.4477153 1-1 1z"/></g></g></svg>